# AST/ASF file generated using VICON BodyLanguage
# -----------------------------------------------
:version 1.10
:name VICON
:units
  mass 1.0
  length 0.45
  angle deg
:documentation
   .ast/.asf automatically generated from VICON data using
   VICON BodyBuilder and BodyLanguage model FoxedUp or BRILLIANT.MOD
:root
   order TX TY TZ RX RY RZ
   axis XYZ
   position 0 0 0  
   orientation 0 0 0 
:bonedata
  begin
     id 1 
     name lhipjoint
     direction 0.602128 -0.715006 0.355257 
     length 2.21237 
     axis 0 0 0  XYZ
  end
  begin
     id 2 
     name lfemur
     direction 0.34202 -0.939693 0  
     length 6.71649  
     axis 0 0 20  XYZ
    dof rx ry rz
    limits (-160.0 20.0)
           (-70.0 70.0)
           (-60.0 70.0)
  end
  begin
     id 3 
     name ltibia
     direction 0.34202 -0.939693 0   
     length 6.97123   
     axis 0 0 20   XYZ
    dof rx
    limits (-10.0 170.0)
  end
  begin
     id 4 
     name lfoot
     direction 0.0655697 -0.180151 0.981451   
     length 1.80924   
     axis -90 7.62852e-016 20   XYZ
    dof rx rz
    limits (-45.0 90.0)
           (-70.0 20.0)
  end
  begin
     id 5 
     name ltoes
     direction 1.53545e-011 -4.21827e-011 1   
     length 0.916331   
     axis -90 7.62852e-016 20   XYZ
    dof rx
    limits (-90.0 20.0)
  end
  begin
     id 6 
     name rhipjoint
     direction -0.625414 -0.698792 0.347201   
     length 2.2637  
     axis 0 0 0  XYZ 
  end
  begin
     id 7 
     name rfemur
     direction -0.34202 -0.939693 0   
     length 7.07595   
     axis 0 0 -20   XYZ
    dof rx ry rz
    limits (-160.0 20.0)
           (-70.0 70.0)
           (-70.0 60.0)
  end
  begin
     id 8 
     name rtibia
     direction -0.34202 -0.939693 0   
     length 7.22924   
     axis 0 0 -20   XYZ
    dof rx
    limits (-10.0 170.0)
 end
 begin
     id 9 
     name rfoot
     direction -0.0766747 -0.210662 0.974547   
     length 1.98482  
     axis -90 -7.62852e-016 -20   XYZ
    dof rx rz
    limits (-45.0 90.0)
           (-20.0 70.0)
  end
  begin
     id 10 
     name rtoes
     direction -1.53532e-011 -4.21867e-011 1   
     length 0.999842   
     axis -90 -7.62852e-016 -20   XYZ
    dof rx
    limits (-90.0 20.0)
  end
  begin
     id 11 
     name lowerback
     direction -0.0224668 0.997354 -0.0691422   
     length 2.09945   
     axis 0 0 0   XYZ
    dof rx ry rz
    limits (-20.0 45.0)
           (-30.0 30.0)
           (-30.0 30.0)
  end
  begin
     id 12 
     name upperback
     direction 0.0134698 0.998451 -0.0539888   
     length 2.09758   
     axis 0 0 0   XYZ
    dof rx ry rz
    limits (-20.0 45.0)
           (-30.0 30.0)
           (-30.0 30.0)
  end
  begin
     id 13 
     name thorax
     direction 0.0241905 0.99948 -0.0213333   
     length 2.10428   
     axis 0 0 0   XYZ
    dof rx ry rz
    limits (-20.0 45.0)
           (-30.0 30.0)
           (-30.0 30.0)
  end
  begin
     id 14 
     name lowerneck
     direction -0.00866847 0.995978 0.0891737   
     length 1.3959   
     axis 0 0 0   XYZ
    dof rx ry rz
    limits (-20.0 45.0)
           (-30.0 30.0)
           (-30.0 30.0)
  end
  begin
     id 15 
     name upperneck
     direction 0.0680679 0.992203 0.104404   
     length 1.39452   
     axis 0 0 0   XYZ
    dof rx ry rz
    limits (-20.0 45.0)
           (-30.0 30.0)
           (-30.0 30.0)
  end
  begin
     id 16
     name head
     direction 0.0242216 0.999358 0.0264054  
     length 1.40433  
     axis 0 0 0   XYZ
    dof rx ry rz
    limits (-20.0 45.0)
           (-30.0 30.0)
           (-30.0 30.0)
  end
  begin
     id 17 
     name lclavicle
     direction 0.929368 0.362991 -0.0671771  
     length 3.04887  
     axis 0 0 0   XYZ
    dof ry rz
    limits (-20.0 10.0)
           (0.0 20.0)
  end
  begin
     id 18 
     name lhumerus
     direction 1 -4.48967e-011 -7.13741e-028   
     length 4.77195   
     axis -180 -30 -90   XYZ
    dof rx ry rz
    limits (-60.0 90.0)
           (-90.0 90.0)
           (-90.0 90.0)
  end
  begin
     id 19
     name lradius
     direction 1 -4.48977e-011 3.60404e-027   
     length 2.98444   
     axis -180 -30 -90   XYZ
    dof rx
    limits (-10.0 170.0)
  end
  begin
     id 20
     name lwrist
     direction 1 -4.48997e-011 7.54877e-027   
     length 1.49222   
     axis -7.18178e-015 90 90   XYZ
    dof ry
    limits (-180.0 0.0)
 end
  begin
     id 21 
     name lhand
     direction 1 -4.489e-011 1.51105e-026   
     length 0.992285   
     axis -9.63605e-015 90 90   XYZ
    dof rx rz
    limits (-90.0 90.0)
           (-45.0 45.0)
  end
  begin
     id 22 
     name lfingers
     direction 1 -4.48998e-011 3.01948e-026   
     length 0.800006   
     axis -1.92718e-014 90 90   XYZ
    dof rx
    limits (0.0 90.0)
  end
  begin
     id 23
     name lthumb
     direction 0.707107 -6.34881e-011 0.707107   
     length 1.14865   
     axis -90 45 -3.53137e-014   XYZ
    dof rx rz
    limits (-45.0 45.0)
           (-45.0 45.0)
  end
  begin
     id 24 
     name rclavicle
     direction -0.945672 0.324529 0.0196374   
     length 3.4236  
     axis 0 0 0   XYZ 
    dof ry rz
    limits (-10.0 20.0)
           (-20.0 0.0)
  end
  begin
     id 25 
     name rhumerus
     direction -1 -4.4896e-011 1.02757e-029  
     length 4.62052   
     axis -180 30 90   XYZ
    dof rx ry rz
    limits (-90.0 60.0)
           (-90.0 90.0)
           (-90.0 90.0)
  end
  begin
     id 26 
     name rradius
     direction -1 -4.48982e-011 3.85962e-027   
     length 2.95332   
     axis -180 30 90   XYZ
    dof rx
    limits (-10.0 170.0)
  end
  begin
     id 27 
     name rwrist
     direction -1 -4.48961e-011 7.55118e-027   
     length 1.47666   
     axis -7.18178e-015 -90 -90   XYZ
    dof ry
    limits (-180.0 0.0)
  end
  begin
     id 28
     name rhand
     direction -1 -4.48984e-011 1.50994e-026   
     length 0.990956   
     axis -9.63605e-015 -90 -90   XYZ
    dof rx rz
    limits (-90.0 90.0)
           (-45.0 45.0)
  end
  begin
     id 29
     name rfingers
     direction -1 -4.4892e-011 3.02158e-026   
     length 0.798934   
     axis -1.92718e-014 -90 -90   XYZ
    dof rx
    limits (0.0 90.0)
  end
  begin
     id 30
     name rthumb
     direction -0.707107 -6.34916e-011 0.707107   
     length 1.14711   
     axis -90 -45 3.53137e-014   XYZ
    dof rx rz
    limits (-45.0 45.0)
           (-45.0 45.0)
  end
:hierarchy
  begin
    root lhipjoint rhipjoint lowerback
    lhipjoint lfemur
    lfemur ltibia
    ltibia lfoot
    lfoot ltoes
    rhipjoint rfemur
    rfemur rtibia
    rtibia rfoot
    rfoot rtoes
    lowerback upperback
    upperback thorax
    thorax lowerneck lclavicle rclavicle
    lowerneck upperneck
    upperneck head
    lclavicle lhumerus
    lhumerus lradius
    lradius lwrist
    lwrist lhand lthumb
    lhand lfingers
    rclavicle rhumerus
    rhumerus rradius
    rradius rwrist
    rwrist rhand rthumb
    rhand rfingers
  end

#!OML:ASF H:\ManfredObstacles\Project 1\Capture day 1\Session 1\Male.ASF
:FULLY-SPECIFIED
:DEGREES
321
root 0.905634 16.3225 2.45048 -168.266 58.7839 -176.861
lowerback -8.71993 -0.121017 -1.01622
upperback 2.3377 -0.0577401 0.205288
thorax 7.36192 -0.0785533 0.779373
lowerneck 1.58018 -1.98822 -5.61148
upperneck -4.51515 -2.29276 10.2886
head -1.54287 -1.19793 4.46665
rclavicle -1.4561e-014 -4.17448e-015
rhumerus -27.7364 -12.0454 -85.3868
rradius 29.2738
rwrist 28.2462
rhand 0.300329 -5.60253
rfingers 7.12502
rthumb 25.878 -33.8616
lclavicle -1.4561e-014 -4.17448e-015
lhumerus -28.1665 14.988 80.1016
lradius 19.5299
lwrist -30.8488
lhand -6.52072 8.92432
lfingers 7.12502
lthumb 19.3317 37.9834
rfemur -7.5096 -4.87577 26.0344
rtibia 23.1932
rfoot -20.989 19.3157
rtoes 36.2347
lfemur -35.9801 -3.61114 -13.4263
ltibia 20.9794
lfoot 0.994555 -2.79025
ltoes -1.94405
322
root 1.10185 16.3124 2.29865 -167.485 59.1598 -176.042
lowerback -9.05277 -0.012762 -0.602454
upperback 2.30008 0.0401932 0.211286
thorax 7.51121 -0.012849 0.567948
lowerneck 1.4898 -1.88563 -5.65459
upperneck -4.42604 -2.15949 10.2895
head -1.50885 -1.12752 4.47088
rclavicle -4.96962e-015 2.38542e-015
rhumerus -27.8594 -11.5056 -85.7338
rradius 29.4587
rwrist 28.0366
rhand 0.444657 -5.87439
rfingers 7.12502
rthumb 26.0162 -34.1133
lclavicle -4.96962e-015 2.38542e-015
lhumerus -28.5384 15.6723 79.6016
lradius 19.1366
lwrist -31.2333
lhand -6.68696 8.92202
lfingers 7.12502
lthumb 19.1719 37.9971
rfemur -6.15771 -4.67898 26.2297
rtibia 22.2748
rfoot -20.8885 19.4748
rtoes 36.2891
lfemur -35.3643 -2.57419 -13.3792
ltibia 16.987
lfoot 2.37207 -4.16373
ltoes -1.00324
323
root 1.29665 16.3078 2.14399 -167.395 59.4714 -176.037
lowerback -9.31876 0.0643951 -0.60384
upperback 2.22997 0.153259 0.0916202
thorax 7.58817 0.0450395 0.460739
lowerneck 1.41049 -1.84408 -5.65274
upperneck -4.32862 -2.10564 10.3221
head -1.46706 -1.09772 4.47843
rclavicle -2.72335e-014 7.95139e-015
rhumerus -27.9924 -11.2779 -85.9342
rradius 29.4397
rwrist 27.9787
rhand 0.414369 -5.82709
rfingers 7.12502
rthumb 25.9872 -34.0702
lclavicle -2.72335e-014 7.95139e-015
lhumerus -28.9379 16.3403 79.0303
lradius 18.772
lwrist -31.9808
lhand -6.56474 8.83556
lfingers 7.12502
lthumb 19.2894 37.8989
rfemur -4.84086 -4.76787 25.9364
rtibia 21.3938
rfoot -20.5856 19.7838
rtoes 36.1235
lfemur -34.8216 -1.61496 -13.9064
ltibia 13.6939
lfoot 3.4361 -5.23739
ltoes -0.0913126
324
root 1.49239 16.3011 1.98894 -167.628 59.8768 -176.304
lowerback -9.41101 0.174888 -0.884121
upperback 2.1172 0.343034 -0.0136959
thorax 7.51754 0.128244 0.537535
lowerneck 1.42951 -1.86258 -5.5853
upperneck -4.29457 -2.13614 10.2443
head -1.45756 -1.11346 4.43653
rclavicle -5.71506e-014 2.0276e-014
rhumerus -28.2792 -11.2981 -85.8828
rradius 29.3575
rwrist 28.0126
rhand 0.405201 -5.67528
rfingers 7.12502
rthumb 25.9784 -33.9197
lclavicle -5.71506e-014 2.0276e-014
lhumerus -29.4949 17.1075 78.4602
lradius 18.449
lwrist -32.802
lhand -6.51568 8.83194
lfingers 7.12502
lthumb 19.3366 37.8906
rfemur -3.49256 -4.57104 25.4711
rtibia 20.689
rfoot -20.1957 19.9682
rtoes 36.0362
lfemur -34.2324 -1.14191 -14.3403
ltibia 11.2751
lfoot 3.34156 -5.99419
ltoes -2.31125
325
root 1.69061 16.2791 1.82392 -167.254 60.2242 -175.892
lowerback -9.63661 0.274623 -0.755048
upperback 2.03742 0.463128 -0.0291187
thorax 7.5612 0.192982 0.468754
lowerneck 1.39705 -1.85642 -5.5587
upperneck -4.2831 -2.1308 10.1729
head -1.44896 -1.10963 4.40439
rclavicle 9.49197e-015 3.18055e-015
rhumerus -28.5131 -11.4155 -85.7809
rradius 29.1987
rwrist 28.2132
rhand 0.518996 -5.6443
rfingers 7.12502
rthumb 26.0874 -33.8727
lclavicle 9.49197e-015 3.18055e-015
lhumerus -30.058 18.1958 77.781
lradius 18.079
lwrist -33.6578
lhand -6.61298 8.91538
lfingers 7.12502
lthumb 19.243 37.9834
rfemur -2.32616 -3.87358 25.421
rtibia 20.3247
rfoot -20.1242 19.6753
rtoes 35.482
lfemur -33.6505 -1.02576 -14.274
ltibia 9.71251
lfoot 3.15136 -5.4155
ltoes -1.98939
326
root 1.88886 16.2485 1.64839 -166.412 60.385 -174.993
lowerback -9.96686 0.355314 -0.22612
upperback 1.98482 0.504943 -0.0169381
thorax 7.69863 0.236428 0.192601
lowerneck 1.33261 -1.8315 -5.63973
upperneck -4.329 -2.08948 10.2451
head -1.45493 -1.08694 4.44616
rclavicle -9.34288e-014 9.14409e-015
rhumerus -28.6703 -11.718 -85.6679
rradius 28.9332
rwrist 28.5321
rhand 0.510237 -5.71808
rfingers 7.12502
rthumb 26.079 -33.9477
lclavicle -9.34288e-014 9.14409e-015
lhumerus -30.5923 19.6755 76.8898
lradius 17.623
lwrist -34.9039
lhand -6.51746 8.85947
lfingers 7.12502
lthumb 19.3349 37.9183
rfemur -1.35734 -3.2368 25.6396
rtibia 20.2396
rfoot -20.1678 19.2591
rtoes 34.3803
lfemur -33.2883 -1.05978 -13.9782
ltibia 9.30787
lfoot 2.67271 -4.06382
ltoes -0.382645
327
root 2.0894 16.2143 1.47116 -165.985 60.5297 -174.567
lowerback -10.2488 0.386685 -0.0219582
upperback 1.8945 0.523063 -0.0441157
thorax 7.76613 0.255166 0.0535864
lowerneck 1.33877 -1.78883 -5.72421
upperneck -4.40853 -2.02009 10.3797
head -1.48716 -1.05268 4.51331
rclavicle 1.4561e-014 -1.11319e-014
rhumerus -28.9304 -12.1888 -85.4248
rradius 28.5903
rwrist 28.9693
rhand 0.394659 -5.68514
rfingers 7.12502
rthumb 25.9683 -33.931
lclavicle 1.4561e-014 -1.11319e-014
lhumerus -31.2233 21.4122 75.8026
lradius 17.0743
lwrist -36.4479
lhand -6.43171 8.7209
lfingers 7.12502
lthumb 19.4173 37.7714
rfemur -0.435777 -2.71591 25.5764
rtibia 20.3461
rfoot -20.0111 19.0137
rtoes 33.54
lfemur -33.1026 -1.20136 -13.9685
ltibia 10.0442
lfoot 2.20466 -3.00914
ltoes -1.61596
328
root 2.29593 16.1834 1.28995 -166.09 60.7111 -174.696
lowerback -10.4924 0.35358 -0.277227
upperback 1.7682 0.513028 -0.0392297
thorax 7.76846 0.238906 0.20223
lowerneck 1.31208 -1.76326 -5.7193
upperneck -4.38344 -1.98961 10.3281
head -1.47715 -1.03625 4.49229
rclavicle -2.33572e-015 -1.19271e-014
rhumerus -29.411 -12.699 -84.9048
rradius 28.2846
rwrist 29.3524
rhand 0.362931 -5.50214
rfingers 7.12502
rthumb 25.938 -33.7525
lclavicle -2.33572e-015 -1.19271e-014
lhumerus -32.0387 23.226 74.7029
lradius 16.5072
lwrist -38.0782
lhand -6.28848 8.65834
lfingers 7.12502
lthumb 19.555 37.6949
rfemur 0.462233 -2.09196 25.2199
rtibia 20.6732
rfoot -19.6135 18.7976
rtoes 33.0482
lfemur -32.8737 -1.38618 -14.3429
ltibia 11.2661
lfoot 2.57954 -2.29018
ltoes -5.02943
329
root 2.50598 16.171 1.10401 -166.232 60.8569 -174.78
lowerback -10.6672 0.380953 -0.458656
upperback 1.65175 0.576951 -0.0639281
thorax 7.74214 0.263104 0.290221
lowerneck 1.18807 -1.83698 -5.61136
upperneck -4.23644 -2.09776 10.2312
head -1.39766 -1.0863 4.43089
rclavicle -4.51738e-014 4.77083e-015
rhumerus -29.9769 -13.3574 -84.3229
rradius 27.9792
rwrist 29.5955
rhand 0.0891869 -5.53144
rfingers 7.12502
rthumb 25.6758 -33.8199
lclavicle -4.51738e-014 4.77083e-015
lhumerus -32.8235 25.0306 73.5324
lradius 15.8495
lwrist -39.869
lhand -6.02749 8.65652
lfingers 7.12502
lthumb 19.8059 37.6674
rfemur 1.29033 -1.37983 24.9338
rtibia 21.2285
rfoot -19.2265 18.3298
rtoes 31.4251
lfemur -32.7404 -1.39964 -14.8053
ltibia 12.7658
lfoot 3.84115 -2.01699
ltoes -8.38661
330
root 2.72058 16.173 0.916938 -166.578 60.9868 -175.011
lowerback -10.8209 0.437694 -0.69393
upperback 1.58874 0.694133 -0.16875
thorax 7.76058 0.312704 0.333368
lowerneck 1.05705 -1.9326 -5.48676
upperneck -4.07286 -2.22671 10.279
head -1.30917 -1.14699 4.41829
rclavicle 4.22417e-014 -2.06736e-014
rhumerus -30.5485 -14.1267 -83.834
rradius 27.7955
rwrist 29.8837
rhand -0.214513 -6.07546
rfingers 7.12502
rthumb 25.3849 -34.4056
lclavicle 4.22417e-014 -2.06736e-014
lhumerus -33.4976 27.0424 72.1459
lradius 15.0171
lwrist -42.0399
lhand -6.10663 8.68973
lfingers 7.12502
lthumb 19.7298 37.7084
rfemur 1.86606 -0.68066 24.5837
rtibia 22.3592
rfoot -18.3702 18.1024
rtoes 31.036
lfemur -32.612 -1.11071 -15.437
ltibia 14.2756
lfoot 5.35941 -2.6137
ltoes -8.56468
331
root 2.93715 16.1709 0.731866 -167.301 60.9186 -175.569
lowerback -10.9438 0.334433 -1.24604
upperback 1.60141 0.637155 -0.210285
thorax 7.84036 0.261183 0.59208
lowerneck 1.01349 -1.96066 -5.48422
upperneck -4.06156 -2.25498 10.4152
head -1.29394 -1.16013 4.46629
rclavicle -2.26615e-014 1.86858e-014
rhumerus -31.1855 -14.9022 -83.2023
rradius 27.7643
rwrist 30.3003
rhand -0.290823 -6.4452
rfingers 7.12502
rthumb 25.3118 -34.7857
lclavicle -2.26615e-014 1.86858e-014
lhumerus -34.2851 29.5825 70.4946
lradius 14.118
lwrist -44.7035
lhand -6.45801 8.70377
lfingers 7.12502
lthumb 19.392 37.7568
rfemur 2.28937 -0.0978379 24.1291
rtibia 23.9307
rfoot -16.4259 18.3557
rtoes 34.1729
lfemur -32.4964 -0.813561 -16.2325
ltibia 16.0479
lfoot 6.68097 -3.87139
ltoes -3.04616
332
root 3.1524 16.1888 0.551108 -168.328 60.6104 -176.5
lowerback -11.0648 0.115209 -2.0064
upperback 1.61838 0.460241 -0.293542
thorax 7.9276 0.142814 0.902683
lowerneck 1.07348 -2.00185 -5.44318
upperneck -4.16734 -2.29089 10.5894
head -1.33517 -1.18154 4.52468
rclavicle 1.72446e-014 2.78299e-015
rhumerus -31.8585 -16.0255 -82.3712
rradius 27.4732
rwrist 30.9239
rhand -0.497207 -6.1259
rfingers 7.12502
rthumb 25.1141 -34.4942
lclavicle 1.72446e-014 2.78299e-015
lhumerus -35.255 32.4061 68.4567
lradius 13.2807
lwrist -47.7663
lhand -6.63046 8.65979
lfingers 7.12502
lthumb 19.2262 37.7294
rfemur 2.3103 0.0687938 23.5878
rtibia 26.4511
rfoot -15.5025 17.4041
rtoes 32.1885
lfemur -32.2505 -1.04304 -17.0293
ltibia 17.7676
lfoot 7.26948 -4.70334
ltoes 2.61449
333
root 3.35807 16.1776 0.374852 -169.462 60.2063 -177.655
lowerback -11.2221 -0.0683888 -2.76169
upperback 1.59951 0.345414 -0.501915
thorax 8.00043 0.0589426 1.08825
lowerneck 1.25815 -2.10007 -5.37751
upperneck -4.27954 -2.40227 10.8239
head -1.39413 -1.24497 4.60351
rclavicle -4.06018e-014 -1.98785e-015
rhumerus -32.5956 -17.5584 -81.444
rradius 26.978
rwrist 31.6065
rhand -0.732602 -5.78027
rfingers 7.12502
rthumb 24.8885 -34.18
lclavicle -4.06018e-014 -1.98785e-015
lhumerus -36.2751 35.1835 66.1481
lradius 12.4733
lwrist -51.1784
lhand -6.62629 8.64989
lfingers 7.12502
lthumb 19.2302 37.7191
rfemur 1.73974 -0.826747 22.9436
rtibia 29.6039
rfoot -14.2287 16.0593
rtoes 26.672
lfemur -32.1179 -1.69413 -17.8235
ltibia 19.4732
lfoot 6.78648 -5.10335
ltoes 2.51903
334
root 3.55377 16.1819 0.198051 -170.286 59.7554 -178.408
lowerback -11.2328 -0.183624 -3.15541
upperback 1.55346 0.266197 -0.701493
thorax 7.96088 0.0104001 1.08455
lowerneck 1.49519 -2.21394 -5.38215
upperneck -4.33211 -2.54581 11.0386
head -1.4396 -1.32502 4.69008
rclavicle 3.23025e-014 1.31198e-014
rhumerus -33.5945 -18.9408 -80.5136
rradius 26.7882
rwrist 31.9873
rhand -0.717548 -5.7122
rfingers 7.12502
rthumb 24.9029 -34.1099
lclavicle 3.23025e-014 1.31198e-014
lhumerus -37.4881 38.091 63.5652
lradius 11.7358
lwrist -54.9603
lhand -6.47538 8.65175
lfingers 7.12502
lthumb 19.3753 37.7065
rfemur 0.658126 -2.56663 21.9988
rtibia 33.3933
rfoot -11.0977 16.114
rtoes 26.5788
lfemur -31.7329 -2.05287 -18.5441
ltibia 20.816
lfoot 6.1372 -5.8344
ltoes 0.644299
